#!OML:ASF E:\Style4\Style4.ASF
:FULLY-SPECIFIED
:DEGREES
585
root -0.223081 17.879 -1.95737 0.0804223 -1.4715 1.13396
lowerback 5.88582 1.90173 0.465911
upperback 0.98532 2.5639 0.132938
thorax -2.26786 1.27447 -0.322378
lowerneck -3.1145 -4.89228 -6.07568
upperneck 4.76725 -6.44257 4.0619
head 2.43475 -3.21889 2.15877
rclavicle 2.39784e-014 -9.93923e-015
rhumerus 26.9197 59.338 -39.1428
rradius 109.248
rwrist -37.1479
rhand -0.732285 21.9944
rfingers 7.12502
rthumb 24.8888 -6.40526
lclavicle 2.39784e-014 -9.93923e-015
lhumerus 66.6971 -58.5088 4.81788
lradius 81.6273
lwrist 12.7926
lhand -10.4303 14.4488
lfingers 7.12502
lthumb 15.5693 43.8421
rfemur -11.1571 2.13276 18.0694
rtibia 28.8075
rfoot -16.2219 -15.3534
rtoes -14.4142
lfemur -9.04628 -3.77057 -19.5623
ltibia 27.124
lfoot -18.2105 10.3251
ltoes -15.1438
586
root -0.22156 17.8804 -1.9613 0.141082 -1.65641 1.07135
lowerback 6.15651 1.87185 0.308576
upperback 0.794357 2.52166 0.330304
thorax -2.63175 1.25375 -0.0427518
lowerneck -3.14838 -4.89999 -6.15473
upperneck 4.99713 -6.44587 3.96019
head 2.51687 -3.22547 2.13709
rclavicle -2.5842e-014 -7.95139e-016
rhumerus 27.3174 58.3665 -39.579
rradius 109.586
rwrist -38.504
rhand -1.03036 22.5133
rfingers 7.12502
rthumb 24.6031 -5.92559
lclavicle -2.5842e-014 -7.95139e-016
lhumerus 67.9901 -59.5141 3.0491
lradius 82.0876
lwrist 12.6415
lhand -10.2761 14.4751
lfingers 7.12502
lthumb 15.7177 43.8568
rfemur -11.2924 2.26056 18.1353
rtibia 28.8576
rfoot -16.2174 -15.2861
rtoes -14.3688
lfemur -9.09289 -3.68814 -19.4939
ltibia 27.0982
lfoot -18.2501 10.3911
ltoes -15.076
587
root -0.219483 17.8817 -1.96564 0.156303 -1.85965 1.07284
lowerback 6.34571 1.84825 0.206563
upperback 0.691937 2.4877 0.429976
thorax -2.85194 1.2376 0.110561
lowerneck -3.12538 -4.89317 -6.13089
upperneck 5.08859 -6.43792 3.90217
head 2.53903 -3.2233 2.11383
rclavicle 1.46852e-014 -7.55382e-015
rhumerus 27.5946 57.2617 -40.2201
rradius 109.823
rwrist -39.7743
rhand -1.56424 22.5503
rfingers 7.12502
rthumb 24.0913 -5.95726
lclavicle 1.46852e-014 -7.55382e-015
lhumerus 69.3168 -60.3564 1.26536
lradius 82.5833
lwrist 12.5975
lhand -9.84621 14.278
lfingers 7.12502
lthumb 16.1317 43.6266
rfemur -11.3466 2.3619 18.1258
rtibia 28.8898
rfoot -16.2743 -15.0664
rtoes -13.6138
lfemur -9.07396 -3.54853 -19.5039
ltibia 27.0589
lfoot -18.2259 10.4801
ltoes -15.302
588
root -0.216627 17.8854 -1.96766 0.19271 -2.01088 1.13668
lowerback 6.25142 1.81495 0.211466
upperback 0.741482 2.44192 0.395037
thorax -2.74631 1.21491 0.0802166
lowerneck -3.08394 -4.88216 -5.96225
upperneck 4.9733 -6.43243 3.90789
head 2.48516 -3.2169 2.08714
rclavicle -2.88486e-014 7.95139e-016
rhumerus 27.7643 55.9044 -41.0884
rradius 109.826
rwrist -40.8941
rhand -2.30361 22.3071
rfingers 7.12502
rthumb 23.3822 -6.29253
lclavicle -2.88486e-014 7.95139e-016
lhumerus 70.7992 -60.9435 -0.688975
lradius 83.1092
lwrist 12.4611
lhand -9.15614 13.7501
lfingers 7.12502
lthumb 16.7961 43.0437
rfemur -11.3553 2.37555 18.0393
rtibia 28.8783
rfoot -16.2642 -14.8074
rtoes -12.8057
lfemur -9.06961 -3.48945 -19.5854
ltibia 27.0157
lfoot -18.2216 10.5421
ltoes -15.1619
589
root -0.215112 17.8878 -1.96793 0.200325 -2.14514 1.10515
lowerback 6.00961 1.81941 0.340205
upperback 0.902669 2.4532 0.359933
thorax -2.4382 1.22018 -0.0168327
lowerneck -3.13555 -4.92285 -5.82441
upperneck 4.8573 -6.49521 4.01988
head 2.45836 -3.24156 2.09657
rclavicle -1.71452e-015 3.18055e-015
rhumerus 27.8155 54.4112 -42.0413
rradius 109.608
rwrist -41.4291
rhand -3.24767 22.1355
rfingers 7.12502
rthumb 22.4763 -6.57656
lclavicle -1.71452e-015 3.18055e-015
lhumerus 72.6175 -61.3929 -2.86966
lradius 83.6362
lwrist 12.095
lhand -8.90394 13.2155
lfingers 7.12502
lthumb 17.0389 42.4882
rfemur -11.3596 2.4316 18.0727
rtibia 28.8271
rfoot -16.1415 -14.7972
rtoes -13.2864
lfemur -9.02319 -3.43525 -19.5541
ltibia 26.9544
lfoot -18.201 10.5836
ltoes -15.1578
590
root -0.212384 17.8872 -1.96836 0.227457 -2.24861 1.10669
lowerback 5.81212 1.80987 0.359642
upperback 1.01652 2.44041 0.381896
thorax -2.21092 1.21457 0.0052073
lowerneck -3.19273 -4.95447 -5.79103
upperneck 4.78138 -6.54009 4.1182
head 2.44911 -3.25985 2.12058
rclavicle -1.55549e-014 -1.31198e-014
rhumerus 27.9179 53.0202 -42.8806
rradius 109.234
rwrist -41.7718
rhand -4.22947 22.2096
rfingers 7.12502
rthumb 21.5336 -6.61332
lclavicle -1.55549e-014 -1.31198e-014
lhumerus 74.0662 -61.8533 -4.56618
lradius 84.269
lwrist 11.9642
lhand -8.53895 13.1408
lfingers 7.12502
lthumb 17.3902 42.3829
rfemur -11.4198 2.517 18.0501
rtibia 28.7398
rfoot -16.0811 -14.9117
rtoes -14.1547
lfemur -9.00784 -3.37906 -19.5689
ltibia 26.8991
lfoot -18.1666 10.6442
ltoes -15.2896
591
root -0.208599 17.889 -1.96908 0.265774 -2.40249 1.10592
lowerback 5.72247 1.80627 0.301334
upperback 1.0621 2.43302 0.456403
thorax -2.11968 1.21177 0.118883
lowerneck -3.25418 -4.98209 -5.83849
upperneck 4.79794 -6.57659 4.2048
head 2.47424 -3.2761 2.15499
rclavicle -2.39784e-014 1.98785e-015
rhumerus 27.9254 51.693 -43.709
rradius 108.796
rwrist -41.9265
rhand -4.98649 22.1658
rfingers 7.12502
rthumb 20.8064 -6.73867
lclavicle -2.39784e-014 1.98785e-015
lhumerus 75.2695 -62.4071 -5.94461
lradius 85.023
lwrist 12.1022
lhand -8.16015 13.1968
lfingers 7.12502
lthumb 17.7547 42.4062
rfemur -11.4576 2.60366 18.024
rtibia 28.6166
rfoot -15.9926 -14.8882
rtoes -14.511
lfemur -9.00458 -3.32008 -19.5869
ltibia 26.8525
lfoot -18.2274 10.6738
ltoes -14.8411
